<?xml version="1.0" encoding="utf-8"?>
<!-- Generator: Adobe Illustrator 18.0.0, SVG Export Plug-In . SVG Version: 6.00 Build 0)  -->
<!DOCTYPE svg PUBLIC "-//W3C//DTD SVG 1.1//EN" "http://www.w3.org/Graphics/SVG/1.1/DTD/svg11.dtd">
<svg version="1.1" id="Layer_1" xmlns="http://www.w3.org/2000/svg" xmlns:xlink="http://www.w3.org/1999/xlink" x="0px" y="0px"
	 viewBox="0 0 595.3 502.7" enable-background="new 0 0 595.3 502.7" xml:space="preserve">
<polygon fill="#EC6C58" enable-background="new    " points="0,86.3 49,0 546,0 595.3,86.3 "/>
<rect x="20" y="86.3" fill="#ECE5DB" enable-background="new    " width="554" height="416.4"/>
<rect x="62" y="119.3" fill="#B9D8D2" enable-background="new    " width="48" height="68"/>
<rect x="146" y="119.3" fill="#B9D8D2" enable-background="new    " width="48" height="68"/>
<rect x="231" y="119.3" fill="#B9D8D2" enable-background="new    " width="48" height="68"/>
<rect x="315" y="119.3" fill="#B9D8D2" enable-background="new    " width="48" height="68"/>
<rect x="398" y="119.3" fill="#B9D8D2" enable-background="new    " width="48" height="68"/>
<rect x="482" y="119.3" fill="#B9D8D2" enable-background="new    " width="48" height="68"/>
<rect x="62" y="243.3" fill="#B9D8D2" enable-background="new    " width="48" height="68"/>
<rect x="146" y="243.3" fill="#B9D8D2" enable-background="new    " width="48" height="68"/>
<rect x="231" y="243.3" fill="#B9D8D2" enable-background="new    " width="48" height="68"/>
<rect x="315" y="243.3" fill="#B9D8D2" enable-background="new    " width="48" height="68"/>
<rect x="398" y="243.3" fill="#B9D8D2" enable-background="new    " width="48" height="68"/>
<rect x="482" y="243.3" fill="#B9D8D2" enable-background="new    " width="48" height="68"/>
<rect x="62" y="367.3" fill="#B9D8D2" enable-background="new    " width="48" height="68"/>
<rect x="146" y="367.3" fill="#B9D8D2" enable-background="new    " width="48" height="68"/>
<rect x="398" y="367.3" fill="#B9D8D2" enable-background="new    " width="48" height="68"/>
<rect x="482" y="367.3" fill="#B9D8D2" enable-background="new    " width="48" height="68"/>
<rect x="243" y="351.8" fill="#ECECEC" enable-background="new    " width="106" height="118.5"/>
<polygon fill="#F0967D" enable-background="new    " points="259.5,470.3 259.5,367.3 296,367.3 333,367.3 333,470.3 "/>
<line fill="none" stroke="#CF6E58" stroke-miterlimit="10" enable-background="new    " x1="295" y1="470.3" x2="295" y2="367.3"/>
<rect x="243" y="470.3" fill="#D9D4D8" enable-background="new    " width="106" height="10.8"/>
<rect x="237.5" y="481.1" fill="#B9B8B7" enable-background="new    " width="117.5" height="10.8"/>
<rect x="231" y="491.9" fill="#A0A0A0" enable-background="new    " width="130.5" height="10.8"/>
</svg>
