<?xml version="1.0" encoding="utf-8"?>
<!-- Generator: Adobe Illustrator 16.2.1, SVG Export Plug-In . SVG Version: 6.00 Build 0)  -->
<!DOCTYPE svg PUBLIC "-//W3C//DTD SVG 1.1//EN" "http://www.w3.org/Graphics/SVG/1.1/DTD/svg11.dtd">
<svg version="1.1" id="Layer_1" xmlns="http://www.w3.org/2000/svg" xmlns:xlink="http://www.w3.org/1999/xlink" x="0px" y="0px"
	 width="165.45px" height="38.803px" viewBox="0 0 165.45 38.803" enable-background="new 0 0 165.45 38.803" xml:space="preserve">
<g>
	<g>
		<path fill="#FFFFFF" d="M24.051,38.152h-3.9c-0.829,0-1.5-0.672-1.5-1.5V22.251c-0.047-4.868-3.989-6.601-7.351-6.601
			c-1.395,0-2.925,0.239-4.4,0.68v20.321c0,0.828-0.671,1.5-1.5,1.5H1.5c-0.829,0-1.5-0.672-1.5-1.5V1.5C0,0.671,0.671,0,1.5,0h3.9
			c0.829,0,1.5,0.671,1.5,1.5v8.296c1.381-0.429,2.824-0.658,4.364-0.695l0.29-0.002c8.372,0,13.997,5.286,13.997,13.153v14.401
			C25.551,37.48,24.88,38.152,24.051,38.152z"/>
	</g>
	<g>
		<path fill="#FFFFFF" d="M43.95,38.603c-4.084,0-7.62-1.388-10.225-4.012c-2.685-2.706-4.207-6.606-4.176-10.701
			c0-9.616,7.215-14.696,14.342-14.739h0.001c4.243,0,7.946,1.646,10.525,4.636c2.704,3.134,3.876,7.484,3.217,11.935
			c-0.109,0.735-0.74,1.28-1.484,1.28H36.63c0.797,2.759,3.182,5.151,7.32,5.151c2.478,0,4.756-1.081,6.095-2.892
			c0.461-0.621,1.319-0.791,1.981-0.393l3.15,1.9c0.361,0.218,0.614,0.578,0.696,0.992c0.083,0.414-0.014,0.844-0.265,1.184
			C52.871,36.646,48.84,38.603,43.95,38.603z M36.821,20.702h13.99c-0.877-3.072-3.434-5.021-6.87-5.101
			C39.42,15.652,37.569,18.573,36.821,20.702z"/>
	</g>
	<g>
		<path fill="#FFFFFF" d="M102.152,38.152h-3.9c-0.828,0-1.5-0.672-1.5-1.5V22.001c0-2.897-0.894-6.351-5.15-6.351
			c-2.546,0-5.154,0.697-5.201,5.864l-0.05,15.142c-0.003,0.826-0.674,1.495-1.5,1.495H81.1c-0.825,0-1.495-0.666-1.5-1.49
			l-0.1-15.151c0-4.849-2.266-5.869-5.669-5.91c-1.431,0-3.07,0.065-4.632,0.487v20.564c0,0.828-0.671,1.5-1.5,1.5h-3.95
			c-0.829,0-1.5-0.672-1.5-1.5V12.501c0-0.635,0.4-1.202,1-1.414c3.578-1.267,7.261-1.936,10.651-1.936
			c4.075,0.055,7.108,1.164,9.062,3.302c1.962-2.16,4.857-3.252,8.64-3.252c7.658,0,12.051,4.666,12.051,12.801v14.651
			C103.652,37.48,102.98,38.152,102.152,38.152z"/>
	</g>
	<g>
		<path fill="#FFFFFF" d="M120.65,38.702c-3.999,0-7.25-0.47-10.231-1.479c-0.609-0.206-1.02-0.777-1.02-1.421V1.4
			c0-0.829,0.672-1.5,1.5-1.5h3.9c0.828,0,1.5,0.671,1.5,1.5v8.482c1.337-0.418,2.713-0.635,4.068-0.635l0.319,0.004
			c9.511,0,14.663,7.651,14.663,14.85c0.03,3.932-1.49,7.742-4.172,10.443C128.48,37.265,124.838,38.702,120.65,38.702z
			 M116.299,31.931c1.508,0.309,3.1,0.389,4.388,0.421c2.117,0,4.004-0.756,5.418-2.185c1.523-1.541,2.419-3.802,2.395-6.049
			c-0.042-4.057-2.808-8.367-7.85-8.367c-1.476,0-2.962,0.227-4.351,0.661V31.931z"/>
	</g>
	<g>
		<path fill="#FFFFFF" d="M153.899,38.803c-8.644,0-14.45-5.285-14.45-13.151V11.251c0-0.829,0.672-1.5,1.5-1.5h3.9
			c0.828,0,1.5,0.671,1.5,1.5v14.401c0,4.904,3.874,6.651,7.5,6.651c1.516,0,3.11-0.066,4.65-0.486V11.201
			c0-0.829,0.672-1.5,1.5-1.5h3.95c0.828,0,1.5,0.671,1.5,1.5v24.151c0,0.636-0.4,1.202-1,1.414
			C160.354,38.213,157.297,38.803,153.899,38.803z"/>
	</g>
</g>
<g>
</g>
<g>
</g>
<g>
</g>
<g>
</g>
<g>
</g>
<g>
</g>
</svg>
