<?xml version="1.0" encoding="utf-8"?>
<!-- Generator: Adobe Illustrator 16.2.1, SVG Export Plug-In . SVG Version: 6.00 Build 0)  -->
<!DOCTYPE svg PUBLIC "-//W3C//DTD SVG 1.1//EN" "http://www.w3.org/Graphics/SVG/1.1/DTD/svg11.dtd">
<svg version="1.1" id="Layer_1" xmlns="http://www.w3.org/2000/svg" xmlns:xlink="http://www.w3.org/1999/xlink" x="0px" y="0px"
	 width="100px" height="100px" viewBox="0 0 100 100" enable-background="new 0 0 100 100" xml:space="preserve">
<path opacity="0.9" fill="#FFFFFF" stroke="#FFFFFF" stroke-width="3" stroke-miterlimit="10" d="M91.984,74.912h-6.309V53.195
	c0-0.791-0.641-1.432-1.431-1.432h-9.539V31.193c0-0.475-0.235-0.919-0.631-1.186c-0.394-0.267-0.896-0.318-1.335-0.142
	L58.68,35.533V34.4c0-6.714-5.462-12.175-12.176-12.175c-6.712,0-12.175,5.461-12.175,12.175v6.304h-3.907
	c-0.791,0-1.431,0.642-1.431,1.432v9.628H15.753c-0.791,0-1.43,0.641-1.43,1.432v21.717H8.014c-0.791,0-1.43,0.641-1.43,1.432
	c0,0.789,0.64,1.43,1.43,1.43h83.97c0.791,0,1.432-0.641,1.432-1.43C93.416,75.553,92.775,74.912,91.984,74.912z M82.812,54.625
	v20.287h-8.106V54.625H82.812z M37.193,34.401c0-5.136,4.177-9.312,9.312-9.312c5.136,0,9.313,4.177,9.313,9.312v40.511H45.53
	V62.104c0-0.789-0.641-1.431-1.431-1.431h-1.568V42.137c0-0.79-0.64-1.432-1.432-1.432h-3.906V34.401z M17.185,54.625h11.808v6.048
	h-1.568c-0.791,0-1.431,0.642-1.431,1.431v12.81h-8.808L17.185,54.625L17.185,54.625z M28.854,74.912V63.535h3V43.567h7.815
	l-0.001,19.968h3v11.377H28.854z M58.682,74.912V38.619l13.164-5.306v41.599H58.682z"/>
</svg>
