<?xml version="1.0" encoding="utf-8"?>
<!-- Generator: Adobe Illustrator 18.0.0, SVG Export Plug-In . SVG Version: 6.00 Build 0)  -->
<!DOCTYPE svg PUBLIC "-//W3C//DTD SVG 1.1//EN" "http://www.w3.org/Graphics/SVG/1.1/DTD/svg11.dtd">
<svg version="1.1" id="Calque_1" xmlns="http://www.w3.org/2000/svg" xmlns:xlink="http://www.w3.org/1999/xlink" x="0px" y="0px"
	 viewBox="0 0 100 100" enable-background="new 0 0 100 100" xml:space="preserve">
<g>
	<path fill="#FFFFFF" d="M81.6,95H18.4c-1.6,0-2.9-1.3-2.9-2.9V7.9c0-1.6,1.3-2.9,2.9-2.9h63.1c1.6,0,2.9,1.3,2.9,2.9v84.2
		C84.5,93.7,83.2,95,81.6,95z M21.3,89.2h57.3V10.8H21.3V89.2z"/>
</g>
<g>
	<path fill="#FFFFFF" d="M68,27.6H32c-1.1,0-1.9-0.9-1.9-1.9s0.9-1.9,1.9-1.9h36c1.1,0,1.9,0.9,1.9,1.9C69.9,26.7,69.1,27.6,68,27.6
		z"/>
</g>
<g>
	<path fill="#FFFFFF" d="M68,39.7H32c-1.1,0-1.9-0.9-1.9-1.9s0.9-1.9,1.9-1.9h36c1.1,0,1.9,0.9,1.9,1.9S69.1,39.7,68,39.7z"/>
</g>
<g>
	<path fill="#FFFFFF" d="M68,51.9H32c-1.1,0-1.9-0.9-1.9-1.9S30.9,48,32,48h36c1.1,0,1.9,0.9,1.9,1.9S69.1,51.9,68,51.9z"/>
</g>
<g>
	<path fill="#FFFFFF" d="M68,64.1H32c-1.1,0-1.9-0.9-1.9-1.9s0.9-1.9,1.9-1.9h36c1.1,0,1.9,0.9,1.9,1.9S69.1,64.1,68,64.1z"/>
</g>
<g>
	<path fill="#FFFFFF" d="M68,76.3H32c-1.1,0-1.9-0.9-1.9-1.9s0.9-1.9,1.9-1.9h36c1.1,0,1.9,0.9,1.9,1.9S69.1,76.3,68,76.3z"/>
</g>
</svg>
