<?xml version="1.0" encoding="utf-8"?>
<!-- Generator: Adobe Illustrator 16.2.1, SVG Export Plug-In . SVG Version: 6.00 Build 0)  -->
<!DOCTYPE svg PUBLIC "-//W3C//DTD SVG 1.1//EN" "http://www.w3.org/Graphics/SVG/1.1/DTD/svg11.dtd">
<svg version="1.1" id="Layer_1" xmlns="http://www.w3.org/2000/svg" xmlns:xlink="http://www.w3.org/1999/xlink" x="0px" y="0px"
	 width="90px" height="90px" viewBox="0 0 90 90" enable-background="new 0 0 90 90" xml:space="preserve">
<path opacity="0.9" fill="#FFFFFF" d="M71.012,13.084h-7.359v-2.017c0-1.922-1.562-3.485-3.483-3.485s-3.483,1.563-3.483,3.485
	v2.017H33.318v-2.017c0-1.922-1.563-3.485-3.484-3.485s-3.484,1.563-3.484,3.485v2.017h-7.36c-6.341,0-11.5,5.159-11.5,11.5v46.333
	c0,6.34,5.159,11.5,11.5,11.5h52.021c6.342,0,11.5-5.16,11.5-11.5V24.584C82.512,18.244,77.354,13.084,71.012,13.084z
	 M76.512,70.918c0,3.031-2.467,5.5-5.5,5.5H18.989c-3.032,0-5.5-2.469-5.5-5.5V24.584c0-3.032,2.468-5.5,5.5-5.5h7.36v2.897
	c0,1.922,1.563,3.485,3.484,3.485s3.484-1.563,3.484-3.485v-2.897h23.365v2.897c0,1.922,1.563,3.485,3.484,3.485
	s3.484-1.563,3.484-3.485v-2.897h7.358c3.033,0,5.5,2.468,5.5,5.5v46.334H76.512z"/>
</svg>
