<?xml version="1.0" encoding="utf-8"?>
<!-- Generator: Adobe Illustrator 16.2.1, SVG Export Plug-In . SVG Version: 6.00 Build 0)  -->
<!DOCTYPE svg PUBLIC "-//W3C//DTD SVG 1.1//EN" "http://www.w3.org/Graphics/SVG/1.1/DTD/svg11.dtd">
<svg version="1.1" id="Layer_1" xmlns="http://www.w3.org/2000/svg" xmlns:xlink="http://www.w3.org/1999/xlink" x="0px" y="0px"
	 width="100px" height="100px" viewBox="0 0 100 100" enable-background="new 0 0 100 100" xml:space="preserve">
<path opacity="0.9" fill="#FFFFFF" stroke="#FFFFFF" stroke-width="5" stroke-linejoin="round" stroke-miterlimit="10" d="
	M65.742,76.987c-6.134,5.212-14.209,8.484-22.898,8.484C23.218,85.472,7.374,69.627,7.374,50c0-19.626,15.844-35.471,35.471-35.471
	c8.791,0,16.764,3.168,22.898,8.484l1.893-2.799c-6.72-5.62-15.334-9.058-24.791-9.058C21.378,11.156,4,28.533,4,50
	s17.378,38.846,38.844,38.846c9.558,0,18.333-3.435,25.101-9.211L65.742,76.987z"/>
<polygon opacity="0.9" fill="#FFFFFF" stroke="#FFFFFF" stroke-width="5" stroke-linejoin="round" stroke-miterlimit="10" points="
	80.872,34.871 78.314,37.325 89.252,48.263 34.973,48.263 34.973,51.738 89.252,51.738 78.314,62.676 80.872,65.128 96,50 "/>
</svg>
