<?xml version="1.0" encoding="utf-8"?>
<!-- Generator: Adobe Illustrator 16.2.1, SVG Export Plug-In . SVG Version: 6.00 Build 0)  -->
<!DOCTYPE svg PUBLIC "-//W3C//DTD SVG 1.1//EN" "http://www.w3.org/Graphics/SVG/1.1/DTD/svg11.dtd">
<svg version="1.1" id="Layer_1" xmlns="http://www.w3.org/2000/svg" xmlns:xlink="http://www.w3.org/1999/xlink" x="0px" y="0px"
	 width="50px" height="50px" viewBox="0 0 50 50" enable-background="new 0 0 50 50" xml:space="preserve">
<g id="user" opacity="0.9">
	<path fill="#FFFFFF" d="M35.434,26.607c0.293-1,0.498-2.029,0.498-3.114V12.302c0-6.111-4.974-11.084-11.083-11.084
		c-6.112,0-11.085,4.973-11.085,11.084v11.191c0,1.08,0.203,2.101,0.494,3.091c-2.892,0.923-5.579,2.734-7.704,5.335
		C3.471,35.732,1.772,40.8,1.772,46.184c0,0.008-0.003,0.012-0.003,0.02c0,0.941,0.766,1.705,1.706,1.705H46.21
		c0.713,0,1.319-0.436,1.576-1.057c0.086-0.207,0.133-0.428,0.133-0.668C47.919,36.904,42.659,28.916,35.434,26.607z M17.174,12.302
		c0-4.233,3.443-7.674,7.673-7.674c4.227,0,7.674,3.44,7.674,7.674v11.191c0,4.229-3.447,7.674-7.674,7.674
		c-4.23,0-7.673-3.442-7.673-7.674V12.302z M9.196,34.066c1.799-2.205,4.074-3.688,6.484-4.354c1.999,2.928,5.36,4.859,9.167,4.859
		c3.797,0,7.155-1.928,9.152-4.854c5.616,1.556,9.808,7.53,10.385,14.773H5.312C5.623,40.539,6.935,36.872,9.196,34.066z"/>
</g>
</svg>
